<?xml version="1.0" standalone="no"?>
<!DOCTYPE svg PUBLIC "-//W3C//DTD SVG 20010904//EN"
 "http://www.w3.org/TR/2001/REC-SVG-20010904/DTD/svg10.dtd">
<svg version="1.0" xmlns="http://www.w3.org/2000/svg"
 width="16.000000pt" height="16.000000pt" viewBox="0 0 16.000000 16.000000"
 preserveAspectRatio="xMidYMid meet">
<metadata>
Created by potrace 1.11, written by Peter Selinger 2001-2013
</metadata>
<g transform="translate(0.000000,16.000000) scale(0.002286,-0.002286)"
fill="#000000" stroke="none">
<path d="M6375 6990 c-89 -14 -119 -21 -185 -41 -282 -85 -536 -225 -770 -424
-47 -40 -278 -266 -515 -502 l-430 -430 -90 22 c-112 28 -553 134 -580 140
-28 6 -253 59 -360 85 -49 12 -155 37 -235 56 -287 69 -436 105 -515 124 -300
71 -820 196 -1155 276 -217 52 -411 95 -431 96 -20 0 -47 -5 -60 -12 -41 -21
-689 -672 -711 -714 -25 -49 -20 -112 13 -160 22 -32 60 -57 239 -154 30 -16
71 -38 90 -49 20 -11 71 -39 115 -63 44 -24 114 -62 155 -85 41 -23 116 -64
165 -90 50 -26 95 -51 100 -55 10 -8 67 -39 190 -105 39 -21 84 -45 100 -55
17 -10 61 -34 98 -54 37 -20 197 -108 355 -195 158 -87 323 -177 367 -201 44
-23 93 -50 110 -60 16 -9 57 -32 90 -50 33 -18 91 -50 128 -71 38 -22 70 -39
72 -39 2 0 30 -15 62 -33 32 -19 80 -46 106 -61 l48 -27 -646 -646 -645 -646
-48 13 c-26 7 -101 28 -167 46 -109 30 -287 79 -325 89 -8 2 -58 15 -110 30
-52 14 -102 28 -110 30 -8 2 -67 17 -130 34 -123 33 -166 33 -210 1 -14 -10
-108 -102 -210 -205 -102 -103 -211 -212 -242 -243 -97 -93 -120 -178 -70
-253 9 -14 175 -144 367 -288 193 -144 361 -271 375 -281 14 -10 75 -56 135
-102 61 -46 120 -90 132 -98 11 -8 80 -60 153 -115 l133 -100 465 -620 c255
-341 478 -634 496 -652 18 -19 50 -37 78 -44 87 -24 96 -17 383 270 143 143
267 274 276 291 11 19 16 47 14 73 -2 23 -47 200 -100 392 -95 346 -135 490
-156 572 l-11 43 647 647 647 647 37 -70 c62 -116 121 -223 188 -341 35 -62
63 -114 63 -116 0 -2 26 -50 58 -108 32 -57 75 -135 96 -174 56 -102 254 -462
286 -520 43 -78 419 -764 453 -825 16 -30 40 -73 52 -95 148 -272 182 -329
210 -346 43 -27 105 -34 147 -16 31 13 528 379 652 480 60 48 73 65 83 106 10
38 2 79 -76 411 -34 146 -80 344 -85 370 -3 14 -21 95 -41 180 -20 85 -42 182
-50 215 -7 33 -23 103 -35 155 -12 52 -24 106 -26 120 -3 14 -9 36 -14 50 -4
14 -12 43 -16 65 -4 22 -8 42 -9 45 0 3 -5 23 -10 45 -4 22 -9 45 -11 50 -3
11 -54 230 -59 255 -2 8 -20 87 -40 175 -21 88 -54 234 -75 325 -61 268 -110
483 -117 510 -3 14 -7 32 -9 40 -2 9 -10 45 -19 80 -9 36 -18 76 -21 90 -3 13
-14 63 -25 110 -12 47 -23 96 -25 109 -3 12 -11 52 -20 87 l-15 65 418 418
c542 542 555 557 678 742 200 301 320 650 310 899 -10 245 -118 392 -333 450
-55 14 -221 20 -287 10z"/>
</g>
</svg>
